<?xml version="1.0"?>
<svg x="0px" y="0px" width="557" height="94" viewBox="0 0 557 94" xmlns="http://www.w3.org/2000/svg">
 <style type="text/css">.st0{fill:#9E834F;}
	.st1{fill:#FF5F00;}</style>

 <g>
  <title>background</title>
  <rect fill="none" id="canvas_background" height="96" width="559" y="-1" x="-1"/>
 </g>
 <g>
  <title>Layer 1</title>
  <g id="svg_1">
   <path id="svg_2" d="m38.000004,92.699997l-10.700001,0l0,-56.799995l19.799995,0c7.300003,0 12.000004,5.200001 12.000004,14.899998c0,7.200001 -2.600002,12.700001 -9.500004,13.900005l0,0.199997c2.300003,0.300003 9.300003,0.900002 9.300003,11.199997c0,3.599998 0.200001,14.300003 1.200001,16.700005l-10.600002,0c-1.399998,-3.5 -1.099998,-7.300003 -1.099998,-11c0,-6.800003 0.600002,-12.5 -7.699997,-12.5l-2.800003,0l0,23.399994l0.100002,0zm0,-32.199997l4.699997,0c4.300003,0 5.5,-4.700001 5.5,-8.299999c0,-5.400002 -2.099998,-7.5 -5.5,-7.5l-4.699997,0l0,15.799999z" class="st0"/>
   <path id="svg_3" d="m63.900002,92.699997l0,-56.799995l27.899994,0l0,8.700001l-17.199989,0l0,14l15.899994,0l0,8.700001l-15.899994,0l0,16.699997l17.799988,0l0,8.699997l-28.499992,0z" class="st0"/>
   <path id="svg_4" d="m94.100006,35.900002l11.099991,0l7.900009,41.300003l0.099991,0l8.900009,-41.300003l10.599991,0l-13.399994,56.799995l-12.600006,0l-12.599991,-56.799995z" class="st0"/>
   <path id="svg_5" d="m135.800003,92.699997l0,-56.799995l27.899994,0l0,8.700001l-17.199997,0l0,14l15.899994,0l0,8.700001l-15.899994,0l0,16.699997l17.800003,0l0,8.699997l-28.5,0z" class="st0"/>
   <path id="svg_6" d="m168.200012,92.699997l0,-56.799995l14.5,0l13.600006,39.400002l0.099991,0l0,-39.400002l10,0l0,56.800003l-14.099991,0l-14,-41.600002l-0.100006,0l0,41.600002l-10,0l0,-0.000008z" class="st0"/>
   <path id="svg_7" d="m246.800003,35.900002l0,40.300003c0,8.5 -4.300003,17.5 -17.399994,17.5c-11.800003,0 -17.400009,-6.800003 -17.400009,-17.5l0,-40.300003l10.699997,0l0,39.5c0,7 2.700012,9.800003 6.600006,9.800003c4.699997,0 6.800003,-3.5 6.800003,-9.800003l0,-39.5l10.699997,0z" class="st0"/>
   <path id="svg_8" d="m252.400009,92.699997l0,-56.799995l27.899979,0l0,8.700001l-17.199982,0l0,14l15.899994,0l0,8.700001l-15.899994,0l0,16.699997l17.799988,0l0,8.699997l-28.499985,0z" class="st0"/>
   <path id="svg_9" d="m298.100006,35.900002l17.899994,0c14,0 16.600006,10.399998 16.600006,28.099998c0,8.700005 1.200012,28.700005 -17.100006,28.700005l-17.399994,0l0,-56.800003zm10.700012,48.099998l5.200012,0c6.5,0 7.799988,-5.400002 7.799988,-19.700005c0,-10.499996 0,-19.699997 -7.399994,-19.699997l-5.5,0l0,39.400002l-0.100006,0z" class="st0"/>
   <path id="svg_10" d="m337.399994,92.699997l0,-56.799995l27.899994,0l0,8.700001l-17.199982,0l0,14l15.899994,0l0,8.700001l-15.899994,0l0,16.699997l17.799988,0l0,8.699997l-28.5,0z" class="st0"/>
   <path id="svg_11" d="m384.5,92.699997l0,-56.799995l19,0c8.100006,0 14.899994,2.599998 14.899994,14.700001c0,6.5 -2.899994,11.299999 -8.699982,12.5l0,0.199997c7.599976,1.200001 9.599976,6.600002 9.599976,14.400005c0,14.399994 -11.299988,15 -15.799988,15l-19,0l0,-0.000008zm10.700012,-33.599998l7.200012,0c2.299988,0 5.599976,-1.700001 5.599976,-7.200001c0,-4.199997 -2.599976,-7.199997 -6.199982,-7.199997l-6.600006,0l0,14.399998zm0,24.900002l6,0c2.299988,0 7.399994,-0.099998 7.399994,-8c0,-5 -1.699982,-8.099998 -7.100006,-8.099998l-6.199982,0l0,16.099998l-0.100006,0z" class="st0"/>
   <path id="svg_12" d="m420.600006,92.699997l14.200012,-56.799999l14.099976,0l13.900024,56.799999l-11.300018,0l-2.799988,-12.599998l-14.600006,0l-2.899994,12.599998l-10.600006,0zm20.600006,-45.899998l-0.100006,0l-4.899994,24.600002l10.199982,0l-5.199982,-24.600002z" class="st0"/>
   <path id="svg_13" d="m479.100006,93.699997c-13.200012,0 -15.700012,-8.699997 -15.200012,-18.5l10.700012,0c0,5.400002 0.200012,10 6.100006,10c3.600006,0 5.399994,-2.599998 5.399994,-6.5c0,-10.199997 -21.5,-10.900002 -21.5,-27.799999c0,-8.900002 3.799988,-16 16.899994,-16c10.399994,0 15.600006,5.200001 14.899994,17.099998l-10.399994,0c0,-4.299999 -0.600006,-8.599998 -5,-8.599998c-3.5,0 -5.5,2.099998 -5.5,6.099998c0,10.800003 21.5,9.800003 21.5,27.700001c0,14.700005 -9.699982,16.5 -17.899994,16.5z" class="st0"/>
   <path id="svg_14" d="m501.200012,92.699997l0,-56.799995l27.899963,0l0,8.700001l-17.199982,0l0,14l15.899994,0l0,8.700001l-15.899994,0l0,16.699997l17.800018,0l0,8.699997l-28.5,0z" class="st0"/>
  </g>
  <g id="svg_15">
   <g id="svg_16">
    <path id="svg_17" d="m212.899994,5.3c0,-0.4 0,-1 -0.399994,-1.6c-0.700012,-1.1 -1.900009,-1.2 -2.700012,-1.2c-3.899994,0 -4.599991,3.6 -4.599991,6.1c0,1.099999 0.199997,3 1.300003,4.299999c0.799988,0.900001 1.799988,1.400001 3.699997,1.400001c1.699997,0 2.199997,-0.2 2.599991,-0.3l0,-3.3l-3.099991,0l0,-2.8l6.5,0l0,7.9c-1,0.3 -2.600006,0.900001 -5.800003,0.900001c-3.600006,0 -5.5,-0.900001 -6.800003,-2.1c-1.800003,-1.700001 -2.099991,-4.3 -2.099991,-5.900001c0,-5.6 3.5,-8.6 8.299988,-8.6c2,0 4.200012,0.6 5.400009,2c1.099991,1.2 1.099991,2.5 1.099991,3.3l-3.399994,0l0,-0.1z" class="st1"/>
    <path id="svg_18" d="m220.599991,0.4l10.699997,0l0,2.6l-7.199997,0l0,3.8l6.800003,0l0,2.599999l-6.800003,0l0,4.3l7.5,0l0,2.599999l-10.900009,0l0,-15.899999l-0.099991,0z" class="st1"/>
    <path id="svg_19" d="m235.299988,0.4l4.899994,0l6,12.5l0,-12.5l3.200012,0l0,15.899999l-4.700012,0l-6.199997,-13.199999l0,13.199999l-3.199997,0l0,-15.899999z" class="st1"/>
    <path id="svg_20" d="m253.799988,0.4l10.600006,0l0,2.6l-7.200012,0l0,3.8l6.800018,0l0,2.599999l-6.800018,0l0,4.3l7.5,0l0,2.599999l-10.899994,0l0,-15.899999z" class="st1"/>
    <path id="svg_21" d="m268.399994,0.4l6.100006,0c1.799988,0 3.5,0 4.799988,1.1c1,0.9 1.400024,2 1.400024,3.1c0,3 -2.600006,3.7 -3.300018,3.9c2.399994,0.2 2.600006,1.6 2.899994,3.7c0.200012,1.900001 0.400024,2.6 0.5,3.1c0.200012,0.7 0.300018,0.900001 0.5,1.099999l-3.799988,0c-0.200012,-0.9 -0.600006,-4.9 -0.900024,-5.5c-0.299988,-0.9 -1.099976,-0.9 -1.699982,-0.9l-3,0l0,6.4l-3.5,0l0,-16zm3.399994,7l2.799988,0c0.400024,0 1.200012,0 1.700012,-0.4c0.199982,-0.2 0.899994,-0.7 0.899994,-1.8c0,-1.1 -0.5,-1.6 -0.799988,-1.8c-0.5,-0.4 -1.200012,-0.4 -2.200012,-0.4l-2.299988,0l0,4.4l-0.100006,0z" class="st1"/>
    <path id="svg_22" d="m293.599976,0.4l5.5,15.899999l-3.399994,0l-1.100006,-3.4l-6.299988,0l-1.200012,3.4l-3.299988,0l5.699982,-15.899999l4.100006,0zm0,9.9l-2.200012,-6.8l-2.399994,6.8l4.600006,0z" class="st1"/>
    <path id="svg_23" d="m304.099976,3.1l-4.700012,0l0,-2.7l12.900024,0l0,2.6l-4.700012,0l0,13.299999l-3.399994,0l0,-13.199999l-0.100006,0z" class="st1"/>
    <path id="svg_24" d="m315.299988,0.4l3.399994,0l0,16l-3.399994,0l0,-16z" class="st1"/>
    <path id="svg_25" d="m330,0.1c1.700012,0 4,0.4 5.600006,2.2c1.699982,1.9 2,4.4 2,6c0,2.3 -0.700012,4.8 -2,6.2c-1.800018,2 -4.300018,2.299999 -5.700012,2.299999c-2.100006,0 -4.199982,-0.699999 -5.600006,-2.199999c-1.699982,-1.8 -2,-4.5 -2,-5.900001c0,-4.3 2,-8.6 7.700012,-8.6zm-2.900024,12.9c0.5,0.7 1.299988,1.3 2.899994,1.3c1.399994,0 2.300018,-0.5 3,-1.5c0.5,-0.8 1.100006,-2 1.100006,-4.6c0,-0.8 -0.100006,-1.9 -0.399994,-2.8c-0.700012,-2 -2,-2.8 -3.600006,-2.8c-1.299988,0 -2.299988,0.5 -2.899994,1.3c-0.899994,1.1 -1.200012,2.8 -1.200012,4.6c-0.099976,1.5 0.100006,3.2 1.100006,4.5z" class="st1"/>
    <path id="svg_26" d="m341.399994,0.4l4.899994,0l6,12.5l0,-12.5l3.200012,0l0,15.899999l-4.700012,0l-6.199982,-13.199999l0,13.199999l-3.200012,0l0,-15.899999z" class="st1"/>
   </g>
  </g>
 </g>
</svg>
