<?xml version="1.0" encoding="utf-8"?>
<!-- Generator: Adobe Illustrator 18.1.1, SVG Export Plug-In . SVG Version: 6.00 Build 0)  -->
<svg version="1.1" id="Ebene_1" xmlns="http://www.w3.org/2000/svg" xmlns:xlink="http://www.w3.org/1999/xlink" x="0px" y="0px"
	 viewBox="0 0 406 94" style="enable-background:new 0 0 406 94;" xml:space="preserve">
<style type="text/css">
	.st0{fill:#9E834F;}
	.st1{fill:#FF5F00;}
</style>
<g>
	<path class="st0" d="M0.4,92.7V35.9h19c8.1,0,14.9,2.6,14.9,14.7c0,6.5-2.9,11.3-8.7,12.5v0.2c7.6,1.2,9.6,6.6,9.6,14.4
		c0,14.4-11.3,15-15.8,15H0.4z M11.1,59.1h7.2c2.3,0,5.6-1.7,5.6-7.2c0-4.2-2.6-7.2-6.2-7.2h-6.6V59.1z M11.1,84h6
		c2.3,0,7.4-0.1,7.4-8c0-5-1.7-8.1-7.1-8.1h-6.2V84z"/>
	<path class="st0" d="M36.6,92.7l14.2-56.8h14.1l13.9,56.8H67.5l-2.8-12.6H50l-2.9,12.6H36.6z M57.2,46.8H57l-4.9,24.6h10.2
		L57.2,46.8z"/>
	<path class="st0" d="M95.1,93.7c-13.2,0-15.7-8.7-15.2-18.5h10.7c0,5.4,0.2,10,6.1,10c3.6,0,5.4-2.6,5.4-6.5
		c0-10.2-21.5-10.9-21.5-27.8c0-8.9,3.8-16,16.9-16c10.4,0,15.6,5.2,14.9,17.1h-10.4c0-4.3-0.6-8.6-5-8.6c-3.5,0-5.5,2.1-5.5,6.1
		c0,10.8,21.5,9.8,21.5,27.7C112.9,91.9,103.2,93.7,95.1,93.7z"/>
	<path class="st0" d="M117.2,92.7V35.9h10.7v56.8H117.2z"/>
	<path class="st0" d="M133,64.3c0-15,0-29.4,17.6-29.4c10.9,0,15.3,6.7,14.9,18.9H155c0-7.6-1.2-10.4-4.4-10.4
		c-6,0-6.8,6.3-6.8,20.9s0.8,20.9,6.8,20.9c5,0,4.7-7.1,4.9-11.6h10.6c0,15.2-5.5,20.1-15.4,20.1C133,93.7,133,79.2,133,64.3z"/>
	<path class="st0" d="M184.3,92.7V35.9H195v56.8H184.3z"/>
	<path class="st0" d="M200.7,92.7V35.9h14.5l13.6,39.4h0.1V35.9h10v56.8h-14.1l-14-41.6h-0.1v41.6H200.7z"/>
	<path class="st0" d="M244,64.3c0-15,0-29.4,17.6-29.4c10.9,0,15.3,6.7,14.9,18.9H266c0-7.6-1.2-10.4-4.4-10.4
		c-6,0-6.8,6.3-6.8,20.9s0.8,20.9,6.8,20.9c5,0,4.7-7.1,4.9-11.6h10.6c0,15.2-5.5,20.1-15.4,20.1C244,93.7,244,79.2,244,64.3z"/>
	<path class="st0" d="M280.7,64.3c0-15,0-29.4,17.6-29.4S316,49.3,316,64.3c0,14.9,0,29.4-17.6,29.4S280.7,79.2,280.7,64.3z
		 M305.1,64.3c0-14.6-0.8-20.9-6.8-20.9c-6,0-6.8,6.3-6.8,20.9s0.8,20.9,6.8,20.9C304.3,85.2,305.1,78.9,305.1,64.3z"/>
	<path class="st0" d="M321,92.7V35.9h17.2l8,38.7h0.1l8.5-38.7h16.6v56.8h-10.4V48.9H361l-9.8,43.8h-10.2l-9.4-43.8h-0.1v43.8H321z"
		/>
	<path class="st0" d="M377.2,92.7V35.9h27.9v8.7h-17.2v14h15.9v8.7h-15.9V84h17.8v8.7H377.2z"/>
</g>
<g>
	<g>
		<path class="st1" d="M136.1,5.3c0-0.4,0-1-0.4-1.6c-0.7-1.1-1.9-1.2-2.7-1.2c-3.9,0-4.6,3.6-4.6,6.1c0,1.1,0.2,3,1.3,4.3
			c0.8,0.9,1.8,1.4,3.7,1.4c1.7,0,2.2-0.2,2.6-0.3v-3.3h-3.1V7.9h6.5v7.9c-1,0.3-2.6,0.9-5.8,0.9c-3.6,0-5.5-0.9-6.8-2.1
			c-1.8-1.7-2.1-4.3-2.1-5.9c0-5.6,3.5-8.6,8.3-8.6c2,0,4.2,0.6,5.4,2c1.1,1.2,1.1,2.5,1.1,3.3H136.1z"/>
		<path class="st1" d="M143.8,0.4h10.6V3h-7.2v3.8h6.8v2.6h-6.8v4.3h7.5v2.6h-10.9V0.4z"/>
		<path class="st1" d="M158.5,0.4h4.9l6,12.5V0.4h3.2v15.9h-4.7l-6.2-13.2v13.2h-3.2V0.4z"/>
		<path class="st1" d="M177,0.4h10.6V3h-7.2v3.8h6.8v2.6h-6.8v4.3h7.5v2.6H177V0.4z"/>
		<path class="st1" d="M191.6,0.4h6.1c1.8,0,3.5,0,4.8,1.1c1,0.9,1.4,2,1.4,3.1c0,3-2.6,3.7-3.3,3.9c2.4,0.2,2.6,1.6,2.9,3.7
			c0.2,1.9,0.4,2.6,0.5,3.1c0.2,0.7,0.3,0.9,0.5,1.1h-3.8c-0.2-0.9-0.6-4.9-0.9-5.5c-0.3-0.9-1.1-0.9-1.7-0.9h-3v6.4h-3.5V0.4z
			 M195,7.4h2.8c0.4,0,1.2,0,1.7-0.4c0.2-0.2,0.9-0.7,0.9-1.8c0-1.1-0.5-1.6-0.8-1.8c-0.5-0.4-1.2-0.4-2.2-0.4H195V7.4z"/>
		<path class="st1" d="M216.8,0.4l5.5,15.9h-3.4l-1.1-3.4h-6.3l-1.2,3.4H207l5.7-15.9H216.8z M216.8,10.3l-2.2-6.8l-2.4,6.8H216.8z"
			/>
		<path class="st1" d="M227.3,3.1h-4.7V0.4h12.9v2.6h-4.7v13.3h-3.4V3.1z"/>
		<path class="st1" d="M238.5,0.4h3.4v16h-3.4V0.4z"/>
		<path class="st1" d="M253.2,0.1c1.7,0,4,0.4,5.6,2.2c1.7,1.9,2,4.4,2,6c0,2.3-0.7,4.8-2,6.2c-1.8,2-4.3,2.3-5.7,2.3
			c-2.1,0-4.2-0.7-5.6-2.2c-1.7-1.8-2-4.5-2-5.9C245.5,4.4,247.5,0.1,253.2,0.1z M250.3,13c0.5,0.7,1.3,1.3,2.9,1.3
			c1.4,0,2.3-0.5,3-1.5c0.5-0.8,1.1-2,1.1-4.6c0-0.8-0.1-1.9-0.4-2.8c-0.7-2-2-2.8-3.6-2.8c-1.3,0-2.3,0.5-2.9,1.3
			c-0.9,1.1-1.2,2.8-1.2,4.6C249.1,10,249.3,11.7,250.3,13z"/>
		<path class="st1" d="M264.6,0.4h4.9l6,12.5V0.4h3.2v15.9H274l-6.2-13.2v13.2h-3.2V0.4z"/>
	</g>
</g>
</svg>
