<?xml version="1.0" encoding="utf-8"?>
<!-- Generator: Adobe Illustrator 18.1.1, SVG Export Plug-In . SVG Version: 6.00 Build 0)  -->
<svg version="1.1" id="Ebene_1" xmlns="http://www.w3.org/2000/svg" xmlns:xlink="http://www.w3.org/1999/xlink" x="0px" y="0px"
	 viewBox="0 0 507 94" style="enable-background:new 0 0 507 94;" xml:space="preserve">
<style type="text/css">
	.st0{fill:#9E834F;}
	.st1{fill:#FF5F00;}
</style>
<g>
	<path class="st0" d="M12.9,92.7H2.2V35.9h19.8c7.3,0,12,5.2,12,14.9c0,7.2-2.6,12.7-9.5,13.9v0.2c2.3,0.3,9.3,0.9,9.3,11.2
		c0,3.6,0.2,14.3,1.2,16.7H24.4c-1.4-3.5-1.1-7.3-1.1-11c0-6.8,0.6-12.5-7.7-12.5h-2.8V92.7z M12.9,60.5h4.7c4.3,0,5.5-4.7,5.5-8.3
		c0-5.4-2.1-7.5-5.5-7.5h-4.7V60.5z"/>
	<path class="st0" d="M38.8,92.7V35.9h27.9v8.7H49.5v14h15.9v8.7H49.5V84h17.8v8.7H38.8z"/>
	<path class="st0" d="M69,35.9h11.1l7.9,41.3h0.1l8.9-41.3h10.6L94.2,92.7H81.6L69,35.9z"/>
	<path class="st0" d="M110.7,92.7V35.9h27.9v8.7h-17.2v14h15.9v8.7h-15.9V84h17.8v8.7H110.7z"/>
	<path class="st0" d="M143.1,92.7V35.9h14.5l13.6,39.4h0.1V35.9h10v56.8h-14.1l-14-41.6h-0.1v41.6H143.1z"/>
	<path class="st0" d="M221.7,35.9v40.3c0,8.5-4.3,17.5-17.4,17.5c-11.8,0-17.4-6.8-17.4-17.5V35.9h10.7v39.5c0,7,2.7,9.8,6.6,9.8
		c4.7,0,6.8-3.5,6.8-9.8V35.9H221.7z"/>
	<path class="st0" d="M227.3,92.7V35.9h27.9v8.7H238v14h15.9v8.7H238V84h17.8v8.7H227.3z"/>
	<path class="st0" d="M273,35.9h17.9c14,0,16.6,10.4,16.6,28.1c0,8.7,1.2,28.7-17.1,28.7H273V35.9z M283.7,84h5.2
		c6.5,0,7.8-5.4,7.8-19.7c0-10.5,0-19.7-7.4-19.7h-5.5V84z"/>
	<path class="st0" d="M312.3,92.7V35.9h27.9v8.7H323v14h15.9v8.7H323V84h17.8v8.7H312.3z"/>
	<path class="st0" d="M359.4,92.7V35.9h19c8.1,0,14.9,2.6,14.9,14.7c0,6.5-2.9,11.3-8.7,12.5v0.2c7.6,1.2,9.6,6.6,9.6,14.4
		c0,14.4-11.3,15-15.8,15H359.4z M370.1,59.1h7.2c2.3,0,5.6-1.7,5.6-7.2c0-4.2-2.6-7.2-6.2-7.2h-6.6V59.1z M370.1,84h6
		c2.3,0,7.4-0.1,7.4-8c0-5-1.7-8.1-7.1-8.1h-6.2V84z"/>
	<path class="st0" d="M395.5,92.7l14.2-56.8h14.1l13.9,56.8h-11.3l-2.8-12.6H409l-2.9,12.6H395.5z M416.1,46.8H416l-4.9,24.6h10.2
		L416.1,46.8z"/>
	<path class="st0" d="M454,93.7c-13.2,0-15.7-8.7-15.2-18.5h10.7c0,5.4,0.2,10,6.1,10c3.6,0,5.4-2.6,5.4-6.5
		c0-10.2-21.5-10.9-21.5-27.8c0-8.9,3.8-16,16.9-16c10.4,0,15.6,5.2,14.9,17.1h-10.4c0-4.3-0.6-8.6-5-8.6c-3.5,0-5.5,2.1-5.5,6.1
		c0,10.8,21.5,9.8,21.5,27.7C471.9,91.9,462.2,93.7,454,93.7z"/>
	<path class="st0" d="M476.1,92.7V35.9H504v8.7h-17.2v14h15.9v8.7h-15.9V84h17.8v8.7H476.1z"/>
</g>
<g>
	<g>
		<path class="st1" d="M186.6,5.3c0-0.4,0-1-0.4-1.6c-0.7-1.1-1.9-1.2-2.7-1.2c-3.9,0-4.6,3.6-4.6,6.1c0,1.1,0.2,3,1.3,4.3
			c0.8,0.9,1.8,1.4,3.7,1.4c1.7,0,2.2-0.2,2.6-0.3v-3.3h-3.1V7.9h6.5v7.9c-1,0.3-2.6,0.9-5.8,0.9c-3.6,0-5.5-0.9-6.8-2.1
			c-1.8-1.7-2.1-4.3-2.1-5.9c0-5.6,3.5-8.6,8.3-8.6c2,0,4.2,0.6,5.4,2c1.1,1.2,1.1,2.5,1.1,3.3H186.6z"/>
		<path class="st1" d="M194.3,0.4H205V3h-7.2v3.8h6.8v2.6h-6.8v4.3h7.5v2.6h-10.9V0.4z"/>
		<path class="st1" d="M209,0.4h4.9l6,12.5V0.4h3.2v15.9h-4.7l-6.2-13.2v13.2H209V0.4z"/>
		<path class="st1" d="M227.5,0.4h10.6V3h-7.2v3.8h6.8v2.6h-6.8v4.3h7.5v2.6h-10.9V0.4z"/>
		<path class="st1" d="M242.1,0.4h6.1c1.8,0,3.5,0,4.8,1.1c1,0.9,1.4,2,1.4,3.1c0,3-2.6,3.7-3.3,3.9c2.4,0.2,2.6,1.6,2.9,3.7
			c0.2,1.9,0.4,2.6,0.5,3.1c0.2,0.7,0.3,0.9,0.5,1.1h-3.8c-0.2-0.9-0.6-4.9-0.9-5.5c-0.3-0.9-1.1-0.9-1.7-0.9h-3v6.4h-3.5V0.4z
			 M245.5,7.4h2.8c0.4,0,1.2,0,1.7-0.4c0.2-0.2,0.9-0.7,0.9-1.8c0-1.1-0.5-1.6-0.8-1.8c-0.5-0.4-1.2-0.4-2.2-0.4h-2.3V7.4z"/>
		<path class="st1" d="M267.3,0.4l5.5,15.9h-3.4l-1.1-3.4h-6.3l-1.2,3.4h-3.3l5.7-15.9H267.3z M267.3,10.3l-2.2-6.8l-2.4,6.8H267.3z
			"/>
		<path class="st1" d="M277.8,3.1h-4.7V0.4H286v2.6h-4.7v13.3h-3.4V3.1z"/>
		<path class="st1" d="M289,0.4h3.4v16H289V0.4z"/>
		<path class="st1" d="M303.7,0.1c1.7,0,4,0.4,5.6,2.2c1.7,1.9,2,4.4,2,6c0,2.3-0.7,4.8-2,6.2c-1.8,2-4.3,2.3-5.7,2.3
			c-2.1,0-4.2-0.7-5.6-2.2c-1.7-1.8-2-4.5-2-5.9C296,4.4,298,0.1,303.7,0.1z M300.8,13c0.5,0.7,1.3,1.3,2.9,1.3c1.4,0,2.3-0.5,3-1.5
			c0.5-0.8,1.1-2,1.1-4.6c0-0.8-0.1-1.9-0.4-2.8c-0.7-2-2-2.8-3.6-2.8c-1.3,0-2.3,0.5-2.9,1.3c-0.9,1.1-1.2,2.8-1.2,4.6
			C299.6,10,299.8,11.7,300.8,13z"/>
		<path class="st1" d="M315.1,0.4h4.9l6,12.5V0.4h3.2v15.9h-4.7l-6.2-13.2v13.2h-3.2V0.4z"/>
	</g>
</g>
</svg>
